<?xml version="1.0" standalone="no"?>
<!DOCTYPE svg PUBLIC "-//W3C//DTD SVG 20010904//EN"
 "http://www.w3.org/TR/2001/REC-SVG-20010904/DTD/svg10.dtd">
<svg version="1.0" xmlns="http://www.w3.org/2000/svg"
 width="842.000000pt" height="500.000000pt" viewBox="0 0 842.000000 500.000000"
 preserveAspectRatio="xMidYMid meet">

<g transform="translate(0.000000,500.000000) scale(0.100000,-0.100000)"
fill="#000000" stroke="none">
<path d="M3390 4977 c-112 -32 -193 -99 -238 -195 -24 -50 -27 -69 -27 -157 1
-89 4 -106 29 -157 33 -68 108 -141 174 -170 30 -14 75 -23 128 -26 l81 -4
125 -217 125 -217 -36 -64 c-35 -62 -36 -69 -36 -165 0 -96 1 -103 36 -165
l36 -64 -125 -217 -125 -217 -76 -4 c-138 -6 -251 -81 -310 -207 -22 -48 -26
-69 -26 -151 0 -88 3 -101 33 -162 37 -77 90 -128 172 -167 47 -22 68 -26 145
-26 82 0 97 3 156 32 79 39 140 102 177 181 22 47 27 71 27 143 0 78 -3 91
-36 158 l-37 74 125 216 125 216 66 1 c95 2 170 33 238 99 102 100 136 229 95
363 -47 156 -176 252 -343 255 l-58 2 -125 217 -126 217 25 38 c91 141 63 342
-65 457 -86 77 -226 113 -329 83z"/>
<path d="M4558 4971 c-121 -40 -202 -118 -238 -231 -55 -172 14 -346 172 -430
54 -29 75 -35 148 -38 70 -3 95 0 143 18 88 33 155 93 197 174 32 64 35 76 35
160 0 79 -4 99 -29 154 -73 159 -267 247 -428 193z"/>
<path d="M2800 3954 c-75 -20 -129 -54 -183 -114 -66 -73 -90 -143 -85 -250 4
-102 34 -176 97 -239 177 -177 474 -125 581 101 50 105 48 213 -5 318 -73 144
-251 225 -405 184z"/>
<path d="M5194 3959 c-67 -9 -166 -62 -211 -113 -20 -23 -47 -66 -62 -96 -22
-47 -26 -69 -26 -146 0 -86 2 -96 36 -162 l37 -71 -125 -216 -125 -215 -53 0
c-73 0 -164 -30 -224 -74 -213 -157 -176 -501 67 -614 49 -23 70 -27 152 -27
83 0 102 3 151 27 160 79 242 258 195 424 -10 32 -28 75 -41 95 l-24 37 126
218 126 219 71 1 c179 1 332 148 344 330 15 235 -179 415 -414 383z"/>
<path d="M4543 1800 c-78 -47 -85 -169 -15 -233 53 -48 162 -40 213 14 57 61
43 176 -26 219 -43 27 -128 27 -172 0z"/>
<path d="M5743 1800 c-78 -47 -85 -169 -15 -233 53 -48 162 -40 213 14 57 61
43 176 -26 219 -43 27 -128 27 -172 0z"/>
<path d="M1875 1748 c-3 -7 -4 -249 -3 -538 l3 -525 120 0 120 0 3 213 2 213
62 -3 61 -3 89 -199 c49 -110 93 -205 99 -213 14 -16 244 -19 254 -3 3 5 -39
104 -94 219 -56 116 -101 215 -101 221 0 6 10 14 23 19 48 19 103 70 131 122
39 71 48 188 21 274 -24 74 -95 154 -167 186 -51 23 -63 24 -336 27 -225 3
-283 1 -287 -10z m521 -242 c29 -29 34 -41 34 -81 0 -40 -5 -52 -34 -81 l-34
-34 -121 0 -121 0 0 115 0 115 121 0 121 0 34 -34z"/>
<path d="M6187 1684 c-4 -4 -7 -51 -7 -105 l0 -98 -52 -3 -53 -3 -3 -97 -3
-97 53 -3 53 -3 5 -235 c6 -265 9 -279 82 -320 44 -25 152 -38 243 -30 l60 5
0 100 0 100 -52 5 c-86 9 -88 13 -88 208 l0 167 80 5 80 5 3 89 c2 65 -1 92
-10 98 -7 4 -45 8 -85 8 l-72 0 -3 103 -3 102 -111 3 c-60 1 -113 -1 -117 -4z"/>
<path d="M3053 1475 c-106 -33 -195 -114 -235 -214 -19 -47 -22 -75 -22 -176
0 -157 20 -213 108 -301 85 -85 146 -108 286 -108 87 -1 116 3 167 22 68 26
143 84 143 110 0 9 -26 46 -58 81 l-57 64 -38 -26 c-68 -46 -170 -56 -238 -21
-31 15 -59 55 -59 83 0 20 7 21 248 23 l247 3 -2 63 c-5 184 -112 350 -255
396 -60 19 -176 20 -235 1z m193 -239 c19 -19 34 -43 34 -55 0 -20 -5 -21
-116 -21 l-116 0 6 28 c4 15 20 39 37 55 23 21 39 27 75 27 39 0 51 -5 80 -34z"/>
<path d="M5104 1477 c-96 -25 -170 -80 -199 -149 -19 -47 -20 -150 -1 -186 40
-76 122 -123 284 -163 120 -29 142 -40 142 -70 0 -33 -44 -52 -110 -47 -63 5
-100 26 -100 60 0 16 -10 18 -120 18 l-120 0 0 -41 c0 -84 62 -159 166 -200
51 -20 76 -23 189 -23 143 0 181 10 259 63 59 41 86 98 86 182 0 132 -78 197
-292 245 -62 13 -122 31 -135 39 -52 35 -11 85 69 85 64 0 98 -17 105 -52 l6
-29 116 3 116 3 -2 42 c-4 87 -69 165 -173 204 -69 27 -213 34 -286 16z"/>
<path d="M3630 1459 c0 -27 229 -749 242 -766 8 -9 48 -13 139 -13 125 0 130
1 139 23 5 12 62 188 126 391 92 293 113 370 102 377 -22 14 -244 11 -255 -3
-6 -7 -32 -106 -59 -220 -27 -115 -52 -208 -56 -208 -9 0 -14 21 -68 244 -22
93 -45 175 -51 183 -8 9 -45 13 -135 13 -120 0 -124 -1 -124 -21z"/>
<path d="M4511 1467 c-8 -11 -11 -118 -9 -398 l3 -384 120 0 120 0 0 395 0
395 -111 3 c-86 2 -114 -1 -123 -11z"/>
<path d="M5711 1467 c-8 -11 -11 -118 -9 -398 l3 -384 120 0 120 0 0 395 0
395 -111 3 c-86 2 -114 -1 -123 -11z"/>
</g>
</svg>
